<?xml version="1.0" encoding="utf-8"?>
<!-- Generator: Adobe Illustrator 25.0.0, SVG Export Plug-In . SVG Version: 6.00 Build 0)  -->
<svg version="1.1" id="Слой_1" xmlns="http://www.w3.org/2000/svg" xmlns:xlink="http://www.w3.org/1999/xlink" x="0px" y="0px"
	 viewBox="0 0 2304 1152" style="enable-background:new 0 0 2304 1152;" xml:space="preserve">
<style type="text/css">
	.st0{fill:#CB2156;}
	.st1{fill:url(#SVGID_1_);}
</style>
<circle class="st0" cx="1625" cy="229" r="69"/>
<linearGradient id="SVGID_1_" gradientUnits="userSpaceOnUse" x1="1265.1331" y1="944.7845" x2="1265.1331" y2="229">
	<stop  offset="0" style="stop-color:#EA7334"/>
	<stop  offset="0.1498" style="stop-color:#E66A3D"/>
	<stop  offset="0.3981" style="stop-color:#DB5054"/>
	<stop  offset="0.5843" style="stop-color:#D13969"/>
	<stop  offset="1" style="stop-color:#CB2156"/>
</linearGradient>
<path class="st1" d="M1834,528.74c-0.29-103.61-83.8-186.82-187.41-186.78c-2.89,0-4.75,0.27-16.17,0.7
	c-7.51,0.28-55.56,1.96-99.55-3.13c-3.12-0.36-7.12-0.86-12.19-2.44c-17.44-5.43-27.8-17.48-30.97-21.01
	c-16.71-18.61-65.37-60.66-114.83-76.02c-23.13-7.18-47.72-11.05-73.22-11.05c-46.89,0-90.71,13.09-128.04,35.8
	c-19.72,12-41.29,20.53-63.68,24.91c-18.63,3.64-37.8,2.84-56.28-1.49c-11.05-2.59-22.57-3.96-34.41-3.96
	c-52.82,0-99.27,27.24-126.08,68.44c-10.33,15.87-27.86,25.57-46.8,25.85c-0.4,0.01-0.81,0.01-1.21,0.02
	c-81.46,1.82-147.02,69.02-146.91,150.5c0.08,65.95,42.64,121.95,101.79,142.12c0.16,0.05,0.32,0.11,0.48,0.17
	c9.08,3.19,14.96,11.94,14.79,21.56c-0.02,1.12-0.03,2.24-0.03,3.36c0,106.82,86.59,193.41,193.41,193.41
	c23.23,0,52.45-7.43,57.45-8.68c32.02-7.96,64.48-22.43,75.84-27.02c19.62-7.93,46.6-18.85,75-16c37,3.71,30.59,26.18,98,59
	c45.59,22.2,96.52,35.28,101.63,36.57c0.67,0.17,1.22,0.31,1.59,0.4c0,0,34.19,8.5,69.14,10.17
	c179.28,8.58,221.05-72.33,221.05-72.33c16.69-32.33,7.88-68.29,3.9-100.68c-3.2-26.07-3.28-49.84,15.61-67.54
	c3.7-3.46,8.51-7.07,13.38-11.47C1796.01,659.81,1834.2,598.73,1834,528.74z"/>
</svg>
