<?xml version="1.0" encoding="utf-8"?>
<!-- Generator: Adobe Illustrator 25.0.0, SVG Export Plug-In . SVG Version: 6.00 Build 0)  -->
<svg version="1.1" id="Слой_1" xmlns="http://www.w3.org/2000/svg" xmlns:xlink="http://www.w3.org/1999/xlink" x="0px" y="0px"
	 viewBox="0 0 2304 1152" style="enable-background:new 0 0 2304 1152;" xml:space="preserve">
<style type="text/css">
	.st0{fill:url(#SVGID_1_);}
</style>
<g>
	<linearGradient id="SVGID_1_" gradientUnits="userSpaceOnUse" x1="1168" y1="1070" x2="1168" y2="82">
		<stop  offset="0.1396" style="stop-color:#EA7334"/>
		<stop  offset="0.71" style="stop-color:#EF9837"/>
	</linearGradient>
	<path class="st0" d="M2304,82c-122.62,0-234.81,44.68-321.17,118.65c-37.54,32.15-88.89,42.7-136.16,28.24
		C1812.93,218.56,1777.12,213,1740,213c-65.52,0-126.99,17.31-180.1,47.61c-51.29,29.26-114.96,24.58-161.4-11.88
		c-70.79-55.58-160.02-88.72-257-88.72c-140.87,0-265.4,69.93-340.77,176.97c-21.82,30.99-63.87,40.39-96.19,20.59
		C665.66,333.74,619.94,320,571,320c-7.68,0-15.27,0.34-22.78,1c-84.19,7.43-167.94-20.6-229.03-79
		C237.97,164.36,128.49,116.05,7.74,114.06c-258.5-4.25-469.4,202.79-469.74,461.32C-462.33,830.82-255.36,1038,0,1038
		c143.22,0,271.21-65.17,355.95-167.47c35.85-43.29,93.64-62.15,147.88-47.43c21.4,5.81,43.92,8.91,67.16,8.91
		c33.76,0,65.98-6.54,95.49-18.41c56.68-22.81,121.67-8.23,161.99,37.67C904.81,938.15,1016.75,993,1141.5,993
		c96.7,0,185.71-32.96,256.4-88.25c46.51-36.38,110.17-41.05,161.4-11.7C1612.54,923.56,1674.23,941,1740,941
		c17.17,0,34.06-1.19,50.59-3.49c86.01-11.96,173.35,7.15,246.36,54.15c77,49.57,168.66,78.34,267.05,78.34
		c272.83,0,494-221.17,494-494S2576.83,82,2304,82z"/>
</g>
</svg>
