<?xml version="1.0" encoding="utf-8"?>
<!-- Generator: Adobe Illustrator 25.0.0, SVG Export Plug-In . SVG Version: 6.00 Build 0)  -->
<svg version="1.1" id="Слой_1" xmlns="http://www.w3.org/2000/svg" xmlns:xlink="http://www.w3.org/1999/xlink" x="0px" y="0px"
	 viewBox="0 0 2304 1152" style="enable-background:new 0 0 2304 1152;" xml:space="preserve">
<style type="text/css">
	.st0{fill:url(#SVGID_1_);}
</style>
<g>
	<linearGradient id="SVGID_1_" gradientUnits="userSpaceOnUse" x1="1152" y1="1103" x2="1152" y2="61.2383">
		<stop  offset="0" style="stop-color:#CB2156"/>
		<stop  offset="0.17" style="stop-color:#CB2156"/>
		<stop  offset="0.7497" style="stop-color:#EA7334"/>
	</linearGradient>
	<path class="st0" d="M2302.39,121c-40.23,0.14-79.24,5.48-116.39,15.38c-37.01,9.86-76.43,4.3-109.45-15.1
		C1998.35,75.35,1907.25,49,1810,49c-116.66,0-224.47,37.91-311.78,102.08c-42.95,31.57-99.94,36.22-147.95,13.06
		C1290.3,135.21,1223.04,119,1152,119c-105.67,0-202.97,35.87-280.38,96.09c-45.61,35.48-108.35,40-158.55,11.37
		C654.51,193.08,586.73,174,514.5,174c-50.33,0-98.49,9.26-142.89,26.17c-42.67,16.26-90.37,11.72-129.05-12.55
		C172.13,143.42,88.79,117.9-0.51,118C-252.62,118.28-457,322.9-457,575c0,252.39,204.61,457,457,457
		c89.14,0,172.32-25.52,242.63-69.66c38.36-24.08,85.88-28.04,128.17-11.82C415.42,967.62,463.86,977,514.5,977
		c71.98,0,139.54-18.94,197.96-52.12c50.26-28.54,113-24.02,158.55,11.55C948.52,996.94,1046.05,1033,1152,1033
		c71.04,0,138.3-16.21,198.27-45.14c48.01-23.16,105-18.51,147.95,13.06C1585.53,1065.09,1693.34,1103,1810,1103
		c95.65,0,185.35-25.48,262.68-70.03c33.58-19.34,73.43-24.22,110.82-14.03c38.39,10.47,78.79,16.06,120.5,16.06
		c252.57,0,457.29-204.9,457-457.54C2760.71,324.06,2555.79,120.13,2302.39,121z"/>
</g>
</svg>
