<?xml version="1.0" encoding="utf-8"?>
<!-- Generator: Adobe Illustrator 25.0.0, SVG Export Plug-In . SVG Version: 6.00 Build 0)  -->
<svg version="1.1" id="Слой_1" xmlns="http://www.w3.org/2000/svg" xmlns:xlink="http://www.w3.org/1999/xlink" x="0px" y="0px"
	 viewBox="0 0 2304 1152" style="enable-background:new 0 0 2304 1152;" xml:space="preserve">
<style type="text/css">
	.st0{fill:#CB2156;}
</style>
<path class="st0" d="M2132.5,86.5c-89.25,0-172.93,23.87-245,65.56c-72.07-41.69-155.75-65.56-245-65.56s-172.93,23.87-245,65.56
	c-72.07-41.69-155.75-65.56-245-65.56s-172.93,23.87-245,65.56c-72.07-41.69-155.75-65.56-245-65.56s-172.93,23.87-245,65.56
	c-72.07-41.69-155.75-65.56-245-65.56c-270.62,0-490,219.38-490,490s219.38,490,490,490c89.25,0,172.93-23.87,245-65.56
	c72.07,41.69,155.75,65.56,245,65.56s172.93-23.87,245-65.56c72.07,41.69,155.75,65.56,245,65.56s172.93-23.87,245-65.56
	c72.07,41.69,155.75,65.56,245,65.56s172.93-23.87,245-65.56c72.07,41.69,155.75,65.56,245,65.56c270.62,0,490-219.38,490-490
	S2403.12,86.5,2132.5,86.5z"/>
</svg>
