<?xml version="1.0" encoding="utf-8"?>
<!-- Generator: Adobe Illustrator 25.0.0, SVG Export Plug-In . SVG Version: 6.00 Build 0)  -->
<svg version="1.1" id="Слой_1" xmlns="http://www.w3.org/2000/svg" xmlns:xlink="http://www.w3.org/1999/xlink" x="0px" y="0px"
	 viewBox="0 0 630 280" style="enable-background:new 0 0 630 280;" xml:space="preserve">
<style type="text/css">
	.st0{fill:url(#SVGID_1_);}
	.st1{fill:url(#SVGID_2_);}
	.st2{fill:url(#SVGID_3_);}
	.st3{fill:url(#SVGID_4_);}
	.st4{fill:url(#SVGID_5_);}
</style>
<linearGradient id="SVGID_1_" gradientUnits="userSpaceOnUse" x1="172.9981" y1="815.8506" x2="428.5635" y2="678.0396" gradientTransform="matrix(1 0 0 1 0 -618)">
	<stop  offset="0" style="stop-color:#FDEB34"/>
	<stop  offset="0.13" style="stop-color:#F9D033"/>
	<stop  offset="0.41" style="stop-color:#EF8C32"/>
	<stop  offset="0.58" style="stop-color:#E96032"/>
	<stop  offset="0.84" style="stop-color:#C71658"/>
</linearGradient>
<path class="st0" d="M338.7,61.6c17.2,4.9,32.9,15.1,44.2,30.3c6.4,8.6,10.8,17.9,13.4,27.5c-6.3,7.6-13.8,13-22.3,16.7
	c-13.3,4.1-27.9,5.1-42.6,4.1c-1.9-0.1-3.9-0.1-5.6-1c-1.3-0.6-2-1.3-2.2-2.2c-0.3-1.1,0.1-2.7,0.9-4.3c0.7-1.4,1.6-2.8,2.4-4.1
	c9.1-15.4,14.2-30.4,14.8-44.8C342,76.3,341,68.9,338.7,61.6L338.7,61.6z"/>
<linearGradient id="SVGID_2_" gradientUnits="userSpaceOnUse" x1="202.4284" y1="870.4077" x2="457.9937" y2="732.5961" gradientTransform="matrix(1 0 0 1 0 -618)">
	<stop  offset="0" style="stop-color:#FDEB34"/>
	<stop  offset="0.13" style="stop-color:#F9D033"/>
	<stop  offset="0.41" style="stop-color:#EF8C32"/>
	<stop  offset="0.58" style="stop-color:#E96032"/>
	<stop  offset="0.84" style="stop-color:#C71658"/>
</linearGradient>
<path class="st1" d="M378,147.3c-14.3,3.9-30.4,3.8-48.3,0.1c-1.6-0.3-3.2-0.7-4.8-1c-1.9-0.2-3.4-0.1-4.5,0.5
	c-0.8,0.5-1.3,1.3-1.5,2.7c-0.2,1.9,0.4,3.7,0.8,5.5c3.5,13.9,9,27.1,17.1,38.2c6.2,6.7,13.9,12.1,23.2,15.5
	c8.6-5.4,16.4-12.4,22.7-20.9c11.3-15.2,16.4-33,15.9-50.4C392.5,142.1,385.5,145.3,378,147.3L378,147.3L378,147.3z"/>
<linearGradient id="SVGID_3_" gradientUnits="userSpaceOnUse" x1="200.4695" y1="866.7934" x2="456.0335" y2="728.9818" gradientTransform="matrix(1 0 0 1 0 -618)">
	<stop  offset="0" style="stop-color:#FDEB34"/>
	<stop  offset="0.13" style="stop-color:#F9D033"/>
	<stop  offset="0.41" style="stop-color:#EF8C32"/>
	<stop  offset="0.58" style="stop-color:#E96032"/>
	<stop  offset="0.84" style="stop-color:#C71658"/>
</linearGradient>
<path class="st2" d="M327.4,200.7c-8.3-12-13.1-27.1-15.1-44.7c-0.2-1.6-0.2-3.2-0.6-4.7c-0.4-1.8-1-3.2-1.9-4
	c-0.7-0.6-1.7-0.8-3.1-0.6c-1.9,0.4-3.5,1.5-5.1,2.5c-12.5,7.6-23.7,16.8-32,27.7c-4.6,7.8-7.4,16.6-7.9,26.3
	c7.9,6.3,17.1,11.4,27.4,14.6c18.3,5.8,37.2,5.1,54-0.8C336.9,212.5,331.7,207,327.4,200.7L327.4,200.7z"/>
<linearGradient id="SVGID_4_" gradientUnits="userSpaceOnUse" x1="168.7545" y1="807.9665" x2="424.3199" y2="670.1553" gradientTransform="matrix(1 0 0 1 0 -618)">
	<stop  offset="0" style="stop-color:#FDEB34"/>
	<stop  offset="0.13" style="stop-color:#F9D033"/>
	<stop  offset="0.41" style="stop-color:#EF8C32"/>
	<stop  offset="0.58" style="stop-color:#E96032"/>
	<stop  offset="0.84" style="stop-color:#C71658"/>
</linearGradient>
<path class="st3" d="M259.7,170.2c9.2-11.4,22.3-20.5,39-27.8c1.5-0.6,3-1.2,4.4-2c1.6-0.9,2.8-1.9,3.3-3c0.4-0.8,0.3-1.8-0.4-3
	c-1-1.7-2.5-2.8-4-4c-11.2-9.2-23.6-16.8-36.9-21.1c-9.1-1.8-18.5-1.8-28.2,0.8c-3.7,9.3-5.8,19.3-5.8,29.9
	c0,18.8,6.6,36.1,17.5,49.9C251.2,182.8,254.9,176.2,259.7,170.2L259.7,170.2L259.7,170.2z"/>
<linearGradient id="SVGID_5_" gradientUnits="userSpaceOnUse" x1="159.5413" y1="790.9012" x2="415.1266" y2="653.0897" gradientTransform="matrix(1 0 0 1 0 -618)">
	<stop  offset="0" style="stop-color:#2A2B2D"/>
	<stop  offset="0.13" style="stop-color:#F9D033"/>
	<stop  offset="0.41" style="stop-color:#EF8C32"/>
	<stop  offset="0.58" style="stop-color:#E96032"/>
	<stop  offset="0.84" style="stop-color:#C71658"/>
</linearGradient>
<path class="st4" d="M268.5,98c13.9,5,26.9,14.3,39.1,27.5c1.1,1.2,2.1,2.4,3.3,3.5c1.4,1.2,2.7,2.1,3.9,2.2
	c0.9,0.1,1.9-0.3,2.8-1.3c1.3-1.4,1.9-3.2,2.7-5c5.5-13.3,9.1-27.2,9.2-40.8c-1-9-4-17.7-9.4-25.9c-10.2-0.6-20.7,0.6-31,3.9
	c-18.3,5.8-33.1,17.3-43.2,31.7C253.7,93.9,261.3,95.3,268.5,98L268.5,98L268.5,98z"/>
</svg>
