<?xml version="1.0" encoding="utf-8"?>
<!-- Generator: Adobe Illustrator 25.0.0, SVG Export Plug-In . SVG Version: 6.00 Build 0)  -->
<svg version="1.1" id="Слой_1" xmlns="http://www.w3.org/2000/svg" xmlns:xlink="http://www.w3.org/1999/xlink" x="0px" y="0px"
	 viewBox="0 0 630 280" style="enable-background:new 0 0 630 280;" xml:space="preserve">
<style type="text/css">
	.st0{fill:url(#SVGID_1_);}
	.st1{fill:url(#SVGID_2_);}
	.st2{fill:url(#SVGID_3_);}
	.st3{fill:url(#SVGID_4_);}
	.st4{fill:url(#SVGID_5_);}
	.st5{fill:#CB2156;}
</style>
<linearGradient id="SVGID_1_" gradientUnits="userSpaceOnUse" x1="435.7982" y1="101.5109" x2="615.9492" y2="198.6555" gradientTransform="matrix(1 0 0 -1 0 282)">
	<stop  offset="0" style="stop-color:#FDEB34"/>
	<stop  offset="0.13" style="stop-color:#F9D033"/>
	<stop  offset="0.41" style="stop-color:#EF8C32"/>
	<stop  offset="0.58" style="stop-color:#E96032"/>
	<stop  offset="0.84" style="stop-color:#C71658"/>
</linearGradient>
<path class="st0" d="M552.58,84.42c12.11,3.46,23.2,10.65,31.19,21.39c4.48,6.03,7.61,12.62,9.42,19.42
	c-4.41,5.35-9.76,9.16-15.7,11.79c-9.39,2.89-19.7,3.62-30.03,2.89c-1.36-0.1-2.72-0.1-3.96-0.67c-0.9-0.39-1.38-0.93-1.52-1.56
	c-0.19-0.81,0.07-1.87,0.64-3.02c0.48-1.01,1.11-1.95,1.68-2.91c6.41-10.87,10.02-21.43,10.42-31.6c0.2-5.34-0.49-10.58-2.11-15.7
	L552.58,84.42z"/>
<linearGradient id="SVGID_2_" gradientUnits="userSpaceOnUse" x1="456.5484" y1="63.0448" x2="636.6993" y2="160.1898" gradientTransform="matrix(1 0 0 -1 0 282)">
	<stop  offset="0" style="stop-color:#FDEB34"/>
	<stop  offset="0.13" style="stop-color:#F9D033"/>
	<stop  offset="0.41" style="stop-color:#EF8C32"/>
	<stop  offset="0.58" style="stop-color:#E96032"/>
	<stop  offset="0.84" style="stop-color:#C71658"/>
</linearGradient>
<path class="st1" d="M580.33,144.89c-10.05,2.78-21.45,2.69-34.02,0.1c-1.11-0.23-2.23-0.52-3.37-0.67
	c-1.32-0.16-2.42-0.07-3.15,0.36c-0.56,0.32-0.94,0.93-1.06,1.89c-0.16,1.33,0.25,2.61,0.58,3.89c2.49,9.8,6.36,19.13,12.08,26.94
	c4.4,4.7,9.78,8.51,16.38,10.95c6.06-3.78,11.53-8.71,16.01-14.73c7.99-10.74,11.56-23.25,11.2-35.55
	c-4.48,3.1-9.37,5.35-14.64,6.82V144.89z"/>
<linearGradient id="SVGID_3_" gradientUnits="userSpaceOnUse" x1="455.1656" y1="65.5962" x2="635.3156" y2="162.7412" gradientTransform="matrix(1 0 0 -1 0 282)">
	<stop  offset="0" style="stop-color:#FDEB34"/>
	<stop  offset="0.13" style="stop-color:#F9D033"/>
	<stop  offset="0.41" style="stop-color:#EF8C32"/>
	<stop  offset="0.58" style="stop-color:#E96032"/>
	<stop  offset="0.84" style="stop-color:#C71658"/>
</linearGradient>
<path class="st2" d="M544.61,182.51c-5.82-8.46-9.26-19.07-10.62-31.54c-0.12-1.11-0.17-2.23-0.39-3.33
	c-0.25-1.27-0.67-2.26-1.32-2.81c-0.49-0.43-1.2-0.59-2.17-0.39c-1.36,0.26-2.46,1.03-3.62,1.74c-8.78,5.34-16.69,11.84-22.55,19.56
	c-3.21,5.53-5.25,11.69-5.6,18.55c5.56,4.47,12.05,8.02,19.31,10.32c12.92,4.11,26.23,3.56,38.1-0.59
	c-4.4-3.21-8.1-7.05-11.17-11.49L544.61,182.51z"/>
<linearGradient id="SVGID_4_" gradientUnits="userSpaceOnUse" x1="432.8094" y1="107.0639" x2="612.9603" y2="204.2086" gradientTransform="matrix(1 0 0 -1 0 282)">
	<stop  offset="0" style="stop-color:#FDEB34"/>
	<stop  offset="0.13" style="stop-color:#F9D033"/>
	<stop  offset="0.41" style="stop-color:#EF8C32"/>
	<stop  offset="0.58" style="stop-color:#E96032"/>
	<stop  offset="0.84" style="stop-color:#C71658"/>
</linearGradient>
<path class="st3" d="M496.9,160.99c6.45-8.01,15.73-14.48,27.46-19.59c1.04-0.45,2.11-0.85,3.12-1.39c1.16-0.62,2-1.32,2.33-2.08
	c0.26-0.59,0.2-1.29-0.29-2.14c-0.68-1.17-1.76-1.95-2.81-2.81c-7.9-6.5-16.66-11.82-25.98-14.87c-6.39-1.29-13.05-1.27-19.86,0.53
	c-2.63,6.54-4.08,13.64-4.08,21.1c0,13.27,4.64,25.44,12.35,35.19c1.76-5.08,4.37-9.71,7.75-13.9V160.99z"/>
<linearGradient id="SVGID_5_" gradientUnits="userSpaceOnUse" x1="426.3134" y1="119.0962" x2="606.4784" y2="216.2411" gradientTransform="matrix(1 0 0 -1 0 282)">
	<stop  offset="0" style="stop-color:#2A2B2D"/>
	<stop  offset="0.13" style="stop-color:#F9D033"/>
	<stop  offset="0.41" style="stop-color:#EF8C32"/>
	<stop  offset="0.58" style="stop-color:#E96032"/>
	<stop  offset="0.84" style="stop-color:#C71658"/>
</linearGradient>
<path class="st4" d="M503.14,110.08c9.81,3.5,18.98,10.11,27.59,19.42c0.77,0.82,1.49,1.71,2.33,2.47c0.97,0.88,1.91,1.45,2.76,1.52
	c0.65,0.06,1.33-0.22,2-0.93c0.94-0.98,1.36-2.24,1.88-3.49c3.89-9.35,6.38-19.14,6.47-28.74c-0.72-6.32-2.79-12.47-6.64-18.23
	c-7.19-0.43-14.57,0.43-21.84,2.73c-12.93,4.09-23.36,12.17-30.48,22.34c5.5,0.07,10.81,1.06,15.96,2.89H503.14z"/>
<path class="st5" d="M49.13,132.98h3.18l17.84-24.29H86.1l-21.96,29.55l23.94,31.62H72.31l-18.69-24.03h-4.48v24.03H35v-61.16h14.13
	V132.98z M159.13,121.09h-18.6v48.76h-14.12V121.1h-18.69v-12.41h51.43v12.41L159.13,121.09z M176.8,170.72
	c-3.79,0-7.19-0.62-10.21-1.85c-3.01-1.23-5.57-2.91-7.67-5.04c-2.1-2.13-3.69-4.59-4.79-7.37c-1.09-2.79-1.64-5.7-1.64-8.74
	c0-3.27,0.55-6.37,1.64-9.26c1.08-2.89,2.68-5.44,4.74-7.62s4.6-3.91,7.62-5.16c3.01-1.26,6.45-1.9,10.3-1.9
	c3.85,0,7.26,0.64,10.26,1.9c2.98,1.26,5.51,2.97,7.58,5.12c2.07,2.16,3.63,4.64,4.7,7.45c1.06,2.82,1.59,5.77,1.59,8.87
	c0,0.81-0.03,1.59-0.09,2.37c-0.06,0.77-0.14,1.45-0.26,2.03h-33.42c0.23,3.04,1.33,5.35,3.31,6.93c1.98,1.58,4.24,2.37,6.76,2.37
	c2.01,0,3.95-0.49,5.82-1.46c1.87-0.97,3.11-2.3,3.75-3.96l11.72,3.27c-1.78,3.56-4.54,6.47-8.27,8.7
	C186.51,169.6,182.02,170.72,176.8,170.72z M186.36,142.98c-0.29-2.86-1.32-5.14-3.1-6.8c-1.78-1.66-3.99-2.5-6.64-2.5
	s-4.92,0.85-6.68,2.55c-1.75,1.69-2.78,3.95-3.05,6.76H186.36z M202.46,157.97c1.55-0.06,2.83-0.33,3.83-0.82
	c1-0.49,1.84-1.4,2.5-2.76c0.67-1.35,1.2-3.21,1.63-5.6c0.43-2.39,0.88-5.53,1.33-9.43l1.55-14.73h33.76v45.23h-13.79v-33.42h-8.01
	l-0.69,5.08c-0.75,5.57-1.62,10.19-2.63,13.83c-1,3.65-2.33,6.57-3.96,8.74c-1.63,2.18-3.67,3.73-6.12,4.66
	c-2.45,0.93-5.47,1.4-9.09,1.46l-0.35-12.24L202.46,157.97z M278.27,170.72c-3.79,0-7.19-0.62-10.21-1.85
	c-3.01-1.23-5.57-2.91-7.67-5.04c-2.1-2.13-3.69-4.59-4.77-7.37c-1.08-2.79-1.63-5.7-1.63-8.74c0-3.27,0.55-6.37,1.63-9.26
	c1.09-2.89,2.66-5.44,4.74-7.62c2.07-2.18,4.6-3.91,7.62-5.16c3.01-1.26,6.45-1.9,10.3-1.9s7.26,0.64,10.26,1.9
	c2.98,1.26,5.51,2.97,7.58,5.12c2.07,2.16,3.63,4.64,4.7,7.45c1.06,2.82,1.59,5.77,1.59,8.87c0,0.81-0.03,1.59-0.09,2.37
	c-0.06,0.77-0.14,1.45-0.26,2.03h-33.42c0.23,3.04,1.33,5.35,3.31,6.93c1.98,1.58,4.24,2.37,6.76,2.37c2.01,0,3.95-0.49,5.82-1.46
	c1.87-0.97,3.11-2.3,3.75-3.96l11.72,3.27c-1.78,3.56-4.54,6.47-8.27,8.7c-3.73,2.24-8.22,3.36-13.44,3.36H278.27z M287.83,142.98
	c-0.29-2.86-1.32-5.14-3.1-6.8c-1.78-1.66-3.99-2.5-6.64-2.5c-2.65,0-4.92,0.85-6.68,2.55c-1.75,1.69-2.78,3.95-3.05,6.76H287.83z
	 M337.01,124.63h14.73l-17.66,21.88l19.12,23.35h-15.85l-13.09-16.12h-1.81v16.12h-13.61v-45.23h13.61v16.97h1.55L337,124.63H337.01
	z M376.81,170.73c-3.85,0-7.28-0.64-10.3-1.9c-3.01-1.26-5.56-2.97-7.62-5.12c-2.07-2.16-3.63-4.66-4.7-7.5
	c-1.06-2.84-1.59-5.82-1.59-8.91s0.54-6.08,1.59-8.91c1.06-2.85,2.63-5.34,4.7-7.5c2.07-2.16,4.62-3.88,7.62-5.17
	c3.01-1.29,6.45-1.94,10.3-1.94s7.26,0.65,10.26,1.94c2.98,1.29,5.51,3.01,7.58,5.17c2.07,2.16,3.64,4.66,4.74,7.5
	c1.08,2.84,1.63,5.82,1.63,8.91s-0.54,6.08-1.59,8.91c-1.06,2.85-2.63,5.34-4.7,7.5c-2.07,2.16-4.6,3.86-7.62,5.12
	C384.1,170.1,380.66,170.73,376.81,170.73z M366.73,147.29c0,3.56,0.96,6.42,2.85,8.56c1.89,2.16,4.31,3.23,7.23,3.23
	c1.43,0,2.76-0.29,3.96-0.87c1.22-0.58,2.26-1.38,3.14-2.42c0.9-1.03,1.59-2.29,2.11-3.75s0.78-3.05,0.78-4.78
	c0-3.56-0.95-6.42-2.85-8.58c-1.89-2.16-4.28-3.23-7.15-3.23c-1.43,0-2.78,0.29-4.01,0.87c-1.23,0.58-2.3,1.38-3.18,2.42
	c-0.9,1.03-1.59,2.29-2.11,3.75C366.99,143.96,366.73,145.55,366.73,147.29z M434.6,146.08l12.31-21.46h14.22v45.23h-13.09v-24.55
	l-10.42,18.01h-6.12l-10.42-18.01v24.55H408v-45.23h14.29L434.6,146.08z"/>
</svg>
